<svg width="83" height="101" viewBox="0 0 83 101" fill="none" xmlns="http://www.w3.org/2000/svg">
<path d="M83 41.5C83 64.4198 64.4198 83 41.5 83C18.5802 83 0 64.4198 0 41.5C0 18.5802 18.5802 0 41.5 0C64.4198 0 83 18.5802 83 41.5Z" fill="#B2C6D2"/>
<path d="M41.341 41.341L70.9157 70.7567L41.341 100.013V41.341Z" fill="#B2C6D2"/>
<path fill-rule="evenodd" clip-rule="evenodd" d="M39.833 39.3333H34.833C32.0716 39.3333 29.833 41.5718 29.833 44.3333V47.6666H33.1663V44.3333C33.1663 43.4128 33.9125 42.6666 34.833 42.6666H48.1663C49.0868 42.6666 49.833 43.4128 49.833 44.3333V47.6666H53.1663V44.3333C53.1663 41.5718 50.9278 39.3333 48.1663 39.3333H43.1663V34.3333H39.833V39.3333Z" fill="#F2F4F5"/>
<path fill-rule="evenodd" clip-rule="evenodd" d="M44.8337 27.6666H38.167C37.2465 27.6666 36.5003 28.4128 36.5003 29.3333C36.5003 30.2537 37.2465 30.9999 38.167 30.9999H44.8337C45.7541 30.9999 46.5003 30.2537 46.5003 29.3333C46.5003 28.4128 45.7541 27.6666 44.8337 27.6666ZM38.167 24.3333C35.4056 24.3333 33.167 26.5718 33.167 29.3333C33.167 32.0947 35.4056 34.3333 38.167 34.3333H44.8337C47.5951 34.3333 49.8337 32.0947 49.8337 29.3333C49.8337 26.5718 47.5951 24.3333 44.8337 24.3333H38.167Z" fill="#F2F4F5"/>
<path fill-rule="evenodd" clip-rule="evenodd" d="M34.8337 51.0001H28.167C27.2465 51.0001 26.5003 51.7463 26.5003 52.6667C26.5003 53.5872 27.2465 54.3334 28.167 54.3334H34.8337C35.7541 54.3334 36.5003 53.5872 36.5003 52.6667C36.5003 51.7463 35.7541 51.0001 34.8337 51.0001ZM28.167 47.6667C25.4056 47.6667 23.167 49.9053 23.167 52.6667C23.167 55.4282 25.4056 57.6667 28.167 57.6667H34.8337C37.5951 57.6667 39.8337 55.4282 39.8337 52.6667C39.8337 49.9053 37.5951 47.6667 34.8337 47.6667H28.167Z" fill="#F2F4F5"/>
<path fill-rule="evenodd" clip-rule="evenodd" d="M54.8337 51.0001H48.167C47.2465 51.0001 46.5003 51.7463 46.5003 52.6667C46.5003 53.5872 47.2465 54.3334 48.167 54.3334H54.8337C55.7541 54.3334 56.5003 53.5872 56.5003 52.6667C56.5003 51.7463 55.7541 51.0001 54.8337 51.0001ZM48.167 47.6667C45.4056 47.6667 43.167 49.9053 43.167 52.6667C43.167 55.4282 45.4056 57.6667 48.167 57.6667H54.8337C57.5951 57.6667 59.8337 55.4282 59.8337 52.6667C59.8337 49.9053 57.5951 47.6667 54.8337 47.6667H48.167Z" fill="#F2F4F5"/>
</svg>
