<svg width="24" height="25" viewBox="0 0 24 25" fill="none" xmlns="http://www.w3.org/2000/svg">
<path d="M8 12.5C8 13.0304 7.78929 13.5391 7.41421 13.9142C7.03914 14.2893 6.53043 14.5 6 14.5C5.46957 14.5 4.96086 14.2893 4.58579 13.9142C4.21071 13.5391 4 13.0304 4 12.5C4 11.9696 4.21071 11.4609 4.58579 11.0858C4.96086 10.7107 5.46957 10.5 6 10.5C6.53043 10.5 7.03914 10.7107 7.41421 11.0858C7.78929 11.4609 8 11.9696 8 12.5ZM14 12.5C14 13.0304 13.7893 13.5391 13.4142 13.9142C13.0391 14.2893 12.5304 14.5 12 14.5C11.4696 14.5 10.9609 14.2893 10.5858 13.9142C10.2107 13.5391 10 13.0304 10 12.5C10 11.9696 10.2107 11.4609 10.5858 11.0858C10.9609 10.7107 11.4696 10.5 12 10.5C12.5304 10.5 13.0391 10.7107 13.4142 11.0858C13.7893 11.4609 14 11.9696 14 12.5ZM20 12.5C20 13.0304 19.7893 13.5391 19.4142 13.9142C19.0391 14.2893 18.5304 14.5 18 14.5C17.4696 14.5 16.9609 14.2893 16.5858 13.9142C16.2107 13.5391 16 13.0304 16 12.5C16 11.9696 16.2107 11.4609 16.5858 11.0858C16.9609 10.7107 17.4696 10.5 18 10.5C18.5304 10.5 19.0391 10.7107 19.4142 11.0858C19.7893 11.4609 20 11.9696 20 12.5Z" fill="#0096EB"/>
</svg>
