<svg width="24" height="24" viewBox="0 0 24 24" fill="none" xmlns="http://www.w3.org/2000/svg">
<path d="M18 16V11C18 7.93 16.37 5.36 13.5 4.68V4C13.5 3.17 12.83 2.5 12 2.5C11.17 2.5 10.5 3.17 10.5 4V4.68C7.64 5.36 6 7.92 6 11V16L4.20711 17.7929C4.0745 17.9255 4 18.1054 4 18.2929C4 18.6834 4.31658 19 4.70711 19H19.2929C19.6834 19 20 18.6834 20 18.2929C20 18.1054 19.9255 17.9255 19.7929 17.7929L18 16ZM16 16.8C16 16.9105 15.9105 17 15.8 17H8.2C8.08954 17 8 16.9105 8 16.8V11C8 8.52 9.51 6.5 12 6.5C14.49 6.5 16 8.52 16 11V16.8Z" fill="#264152"/>
<path d="M14 20C14 21.1 13.1 22 12 22C10.9 22 10 21.1 10 20H14Z" fill="#0096EB"/>
</svg>
