<svg width="24" height="24" viewBox="0 0 24 24" fill="none" xmlns="http://www.w3.org/2000/svg">
<mask id="path-1-inside-1_13412_45479" fill="white">
<path d="M19 5C19.5523 5 20 5.44772 20 6C20 6.55229 19.5523 7 19 7L5 7C4.44771 7 4 6.55228 4 6C4 5.44771 4.44772 5 5 5L19 5Z"/>
</mask>
<path d="M19 5L5 5L5 9L19 9L19 5ZM5 7L19 7L19 3L5 3L5 7ZM6 6C6 6.55228 5.55229 7 5 7L5 3C3.34315 3 2 4.34315 2 6L6 6ZM5 5C5.55229 5 6 5.44772 6 6L2 6C2 7.65685 3.34315 9 5 9L5 5ZM18 6C18 5.44772 18.4477 5 19 5L19 9C20.6569 9 22 7.65685 22 6L18 6ZM22 6C22 4.34315 20.6569 3 19 3L19 7C18.4477 7 18 6.55228 18 6L22 6Z" fill="#264152" mask="url(#path-1-inside-1_13412_45479)"/>
<mask id="path-3-inside-2_13412_45479" fill="white">
<path d="M19 11C19.5523 11 20 11.4477 20 12C20 12.5523 19.5523 13 19 13L5 13C4.44771 13 4 12.5523 4 12C4 11.4477 4.44771 11 5 11L19 11Z"/>
</mask>
<path d="M19 11L5 11L5 15L19 15L19 11ZM5 13L19 13L19 9L5 9L5 13ZM6 12C6 12.5523 5.55229 13 5 13L5 9C3.34315 9 2 10.3431 2 12L6 12ZM5 11C5.55229 11 6 11.4477 6 12L2 12C2 13.6569 3.34315 15 5 15L5 11ZM18 12C18 11.4477 18.4477 11 19 11L19 15C20.6569 15 22 13.6569 22 12L18 12ZM22 12C22 10.3431 20.6569 9 19 9L19 13C18.4477 13 18 12.5523 18 12L22 12Z" fill="#264152" mask="url(#path-3-inside-2_13412_45479)"/>
<mask id="path-5-inside-3_13412_45479" fill="white">
<path d="M19 17C19.5523 17 20 17.4477 20 18C20 18.5523 19.5523 19 19 19L5 19C4.44771 19 4 18.5523 4 18C4 17.4477 4.44771 17 5 17L19 17Z"/>
</mask>
<path d="M19 17L5 17L5 21L19 21L19 17ZM5 19L19 19L19 15L5 15L5 19ZM6 18C6 18.5523 5.55229 19 5 19L5 15C3.34315 15 2 16.3431 2 18L6 18ZM5 17C5.55229 17 6 17.4477 6 18L2 18C2 19.6569 3.34315 21 5 21L5 17ZM18 18C18 17.4477 18.4477 17 19 17L19 21C20.6569 21 22 19.6569 22 18L18 18ZM22 18C22 16.3431 20.6569 15 19 15L19 19C18.4477 19 18 18.5523 18 18L22 18Z" fill="#264152" mask="url(#path-5-inside-3_13412_45479)"/>
<path d="M7 4.5C7 3.67157 7.67157 3 8.5 3C9.32843 3 10 3.67157 10 4.5L10 7.5C10 8.32843 9.32843 9 8.5 9C7.67157 9 7 8.32843 7 7.5L7 4.5Z" fill="#0096EB"/>
<path d="M7 16.5C7 15.6716 7.67157 15 8.5 15C9.32843 15 10 15.6716 10 16.5L10 19.5C10 20.3284 9.32843 21 8.5 21C7.67157 21 7 20.3284 7 19.5L7 16.5Z" fill="#0096EB"/>
<path d="M14 10.5C14 9.67157 14.6716 9 15.5 9C16.3284 9 17 9.67157 17 10.5L17 13.5C17 14.3284 16.3284 15 15.5 15C14.6716 15 14 14.3284 14 13.5L14 10.5Z" fill="#0096EB"/>
</svg>
