<svg width="40" height="40" viewBox="0 0 40 40" fill="none" xmlns="http://www.w3.org/2000/svg">
<rect width="40" height="40" rx="20" fill="#56B9F2"/>
<circle cx="20.1606" cy="18.1596" r="6.35294" fill="#0096EB"/>
<circle cx="20.2035" cy="18.2035" r="11.2035" fill="white"/>
<path d="M20.1611 18.1602L28.1452 26.1013L20.1611 33.9996V18.1602Z" fill="white"/>
<path d="M27.5436 18.1605C27.5436 22.2381 24.2381 25.5436 20.1605 25.5436C16.0829 25.5436 12.7773 22.2381 12.7773 18.1605C12.7773 14.0829 16.0829 10.7773 20.1605 10.7773C24.2381 10.7773 27.5436 14.0829 27.5436 18.1605ZM15.6042 18.1605C15.6042 20.6769 17.6441 22.7168 20.1605 22.7168C22.6769 22.7168 24.7168 20.6769 24.7168 18.1605C24.7168 15.6441 22.6769 13.6042 20.1605 13.6042C17.6441 13.6042 15.6042 15.6441 15.6042 18.1605Z" fill="#2E99FA"/>
<path opacity="0.5" d="M27.5436 18.1605C27.5436 19.6207 27.1106 21.0482 26.2994 22.2624C25.4881 23.4765 24.335 24.4228 22.9859 24.9816C21.6368 25.5404 20.1523 25.6867 18.7201 25.4018C17.2879 25.1169 15.9724 24.4137 14.9398 23.3812L16.9387 21.3823C17.5759 22.0195 18.3878 22.4534 19.2716 22.6292C20.1554 22.805 21.0716 22.7148 21.9041 22.37C22.7367 22.0251 23.4483 21.4411 23.9489 20.6918C24.4496 19.9426 24.7168 19.0616 24.7168 18.1605H27.5436Z" fill="white"/>
<path opacity="0.5" d="M23.1408 11.4054C24.4481 11.9822 25.5601 12.9259 26.3416 14.1221C27.1232 15.3184 27.5409 16.7157 27.5439 18.1446L24.7171 18.1507C24.7152 17.2689 24.4575 16.4066 23.9751 15.6683C23.4928 14.9301 22.8066 14.3477 21.9998 13.9918L23.1408 11.4054Z" fill="#002033"/>
</svg>
